<svg xmlns="http://www.w3.org/2000/svg" xmlns:xlink="http://www.w3.org/1999/xlink" version="1.1" id="Calque_1" x="0px" y="0px" width="100px" height="100px" viewBox="0 0 100 100" enable-background="new 0 0 100 100" xml:space="preserve">
<path fill="#000000" d="M20.625,48.333c0.556,0.417,0.972,0.694,1.25,0.834v1.666c-4.444,2.64-6.042,6.528-4.792,11.667  c1.805,4.027,5.139,5.973,10,5.833c3.472-0.972,5.833-3.402,7.083-7.291c0.556-4.167-1.181-7.569-5.208-10.209v-1.666  c0.555-0.417,1.18-0.694,1.875-0.834H45c1.111,0.14,2.5,0.069,4.167-0.208V37.708c-8.056,4.167-14.306,2.223-18.75-5.833  C28.611,26.458,30,21.667,34.583,17.5c4.584-2.917,9.444-2.917,14.584,0V3.021L3.021,3.333l0.312,45.312L20.625,48.333z"/>
<path fill="#000000" d="M62.292,83.542c3.889-1.39,6.041-4.306,6.458-8.75c-0.277-4.167-2.639-7.015-7.083-8.542  c-3.89-0.694-7.153,0.764-9.792,4.375c-0.556,0.139-1.25,0.139-2.083,0l-0.625-1.25v-17.5c-1.25-0.277-2.848-0.348-4.792-0.208  h-9.167c3.056,4.583,3.194,9.444,0.417,14.583c-3.333,4.444-7.986,6.111-13.958,5c-8.889-4.306-10.833-10.833-5.833-19.583H3.021  l0.312,41.041c-0.139,1.111-0.07,2.431,0.208,3.959h45.417c0.14-0.973,0.209-2.084,0.209-3.334V81.458L49.375,80L50,79.167  l1.875,0.208C54.375,82.986,57.848,84.375,62.292,83.542z"/>
<path fill="#000000" d="M52.292,22.708c-0.556,0.417-1.25,0.625-2.084,0.625c-5.277-6.389-10.625-6.527-16.041-0.417  c-2.778,6.25-0.694,10.764,6.25,13.542c3.75,0.14,7.014-1.458,9.791-4.791c0.694,0,1.39,0.208,2.084,0.625  c0.277,1.25,0.347,2.847,0.208,4.791v11.562L65,48.333c-3.056-4.583-3.194-9.444-0.417-14.583c3.056-4.167,7.431-5.903,13.125-5.208  c9.584,4.028,11.806,10.625,6.667,19.792h11.458l0.834-0.208V3.021L52.188,3.333L52.292,22.708z"/>
<path fill="#000000" d="M78.333,51.042c-0.139-0.556-0.139-1.25,0-2.084c4.167-2.36,5.834-5.972,5-10.833  c-1.666-4.444-5.069-6.598-10.208-6.458c-0.694,0.139-1.527,0.485-2.5,1.041L70,32.917c-5.973,5.556-5.625,10.833,1.042,15.833  l0.416,1.667c-0.277,0.416-0.694,0.833-1.25,1.25h-17.5c-0.277,1.25-0.347,2.847-0.208,4.791v8.334  c4.583-2.778,9.444-2.709,14.583,0.208c4.028,3.333,5.556,7.848,4.584,13.542c-3.89,8.75-10.209,10.902-18.959,6.458  c-0.277,1.25-0.347,2.848-0.208,4.792v7.188l43.958-0.312c0.14-0.973,0.209-2.084,0.209-3.334V51.354L81.25,51.667  C80.277,51.806,79.306,51.598,78.333,51.042z"/>
</svg>