<?xml version="1.0" encoding="iso-8859-1"?>
<!-- Generator: Adobe Illustrator 16.0.0, SVG Export Plug-In . SVG Version: 6.00 Build 0)  -->
<!DOCTYPE svg PUBLIC "-//W3C//DTD SVG 1.1//EN" "http://www.w3.org/Graphics/SVG/1.1/DTD/svg11.dtd">
<svg version="1.1" id="Layer_1" xmlns="http://www.w3.org/2000/svg" xmlns:xlink="http://www.w3.org/1999/xlink" x="0px" y="0px"
	 width="275.751px" height="84.714px" viewBox="0 0 275.751 84.714" style="enable-background:new 0 0 275.751 84.714;"
	 xml:space="preserve">
<g>
	<path style="fill:#FFFFFF;" d="M8.568,11.444c0-2.642,2.583-4.464,6.104-4.464c2.758,0,5.516,1.294,5.516,3.229v1.88h6.926V8.215
		C27.114,2.288,19.602,0,14.73,0C6.69,0,0.822,4.987,0.822,11.738c0,12.967,19.601,12.38,19.601,19.484
		c0,3.227-2.817,4.928-5.985,4.928c-5.81,0-10.095-4.928-10.095-4.928L0,36.621c0,0,5.106,6.455,14.319,6.455
		c8.745,0,13.85-5.634,13.85-12.267C28.169,17.135,8.568,18.544,8.568,11.444z"/>
	<path style="fill:#FFFFFF;" d="M46.42,36.561c-4.812,0-9.332-3.11-9.332-9.213c0-5.399,3.698-9.331,8.862-9.331
		c1.82,0,4.285,0.705,4.285,2.346v1.642h6.573v-3.52c0-5.164-6.984-6.748-10.857-6.748c-10.27,0-16.373,7.218-16.373,15.668
		c0,8.685,6.337,15.669,16.197,15.669c8.157,0,12.618-5.399,12.618-5.399l-3.111-5.166C55.281,32.51,51.525,36.561,46.42,36.561z"/>
	<rect x="61.794" y="0.704" style="fill:#FFFFFF;" width="6.457" height="6.867"/>
	<path style="fill:#FFFFFF;" d="M88.906,43.075c7.454,0,12.031-4.519,12.031-4.519l-3.109-5.163c0,0-3.581,3.344-8.392,3.344
		c-4.519,0-8.393-2.759-8.98-8.041h20.658c0,0,0.176-1.879,0.176-2.759c0-7.921-4.695-14.201-13.263-14.201
		c-8.979,0-15.2,6.456-15.2,15.668C72.826,35.915,78.988,43.075,88.906,43.075z M88.026,17.488c3.052,0,5.517,2.466,5.634,6.046
		H80.69C81.512,19.777,84.211,17.488,88.026,17.488z"/>
	<path style="fill:#FFFFFF;" d="M105.572,20.07v22.3h7.396V28.638c0-1.408,0.176-2.757,0.587-3.991
		c1.055-3.581,4.049-6.103,8.04-6.103c3.755,0,4.695,2.465,4.695,6.103v13.734c0,2.815,1.173,3.989,3.991,3.989h7.101v-6.279h-2.348
		c-0.821,0-1.292-0.47-1.292-1.291V23.121c0-7.922-3.814-11.383-10.445-11.383c-6.045,0-9.273,3.696-10.563,6.22h-0.118
		c0,0,0.118-0.645,0.118-1.292v-0.88c0-2.112-1.292-3.344-3.933-3.344h-6.866v6.337h2.348
		C105.104,18.779,105.572,19.189,105.572,20.07z"/>
	<path style="fill:#FFFFFF;" d="M153.577,43.075c8.157,0,12.617-5.399,12.617-5.399l-3.111-5.166c0,0-3.755,4.05-8.86,4.05
		c-4.812,0-9.331-3.11-9.331-9.213c0-5.399,3.696-9.331,8.861-9.331c1.819,0,4.284,0.705,4.284,2.346v1.642h6.573v-3.52
		c0-5.164-6.984-6.748-10.857-6.748c-10.271,0-16.373,7.218-16.373,15.668C137.38,36.091,143.718,43.075,153.577,43.075z"/>
	<path style="fill:#FFFFFF;" d="M182.098,43.075c7.452,0,12.03-4.519,12.03-4.519l-3.113-5.163c0,0-3.578,3.344-8.389,3.344
		c-4.521,0-8.394-2.759-8.979-8.041h20.655c0,0,0.176-1.879,0.176-2.759c0-7.921-4.694-14.201-13.262-14.201
		c-8.978,0-15.198,6.456-15.198,15.668C166.018,35.915,172.179,43.075,182.098,43.075z M181.216,17.488
		c3.054,0,5.517,2.466,5.634,6.046h-12.969C174.702,19.777,177.403,17.488,181.216,17.488z"/>
	<path style="fill:#FFFFFF;" d="M207.799,37.264c-5.105,0-8.919-4.399-8.919-4.399l-3.522,4.869c0,0,4.228,5.341,12.441,5.341
		c6.516,0,11.502-3.522,11.502-9.155c0-9.977-15.904-9.04-15.904-13.733c0-1.76,1.822-2.7,4.461-2.7
		c1.645,0,3.757,0.706,3.757,2.113v1.465h6.575v-3.109c0-4.873-6.458-6.22-10.508-6.22c-6.221,0-11.618,2.756-11.618,8.743
		c0,9.684,15.785,9.624,15.785,13.849C211.849,36.325,210.088,37.264,207.799,37.264z"/>
	<rect x="220.1" y="38.973" style="fill:#FFFFFF;" width="2.361" height="2.453"/>
	<path style="fill:#FFFFFF;" d="M225.62,22.354v19.071h2.024v-1.351c0-0.734-0.064-1.256-0.064-1.256h0.064
		c0,0,1.38,2.974,5.059,2.974c4.047,0,6.962-3.189,6.962-8.064c0-4.784-2.58-8.094-6.717-8.094c-3.955,0-5.245,2.944-5.245,2.944
		h-0.059c0,0,0.059-0.551,0.059-1.257V21.74c0-1.318-0.551-1.872-1.869-1.872h-2.177v1.81h1.286
		C225.376,21.678,225.62,21.924,225.62,22.354z M232.642,27.535c2.851,0,4.876,2.422,4.876,6.193c0,3.925-2.239,6.227-4.967,6.227
		c-3.312,0-4.906-3.098-4.906-6.194C227.645,29.375,230.064,27.535,232.642,27.535z"/>
	<path style="fill:#FFFFFF;" d="M248.705,41.793c3.496,0,5.73-2.208,5.73-2.208l-1.008-1.563c0,0-1.811,1.899-4.631,1.899
		c-3.19,0-5.918-2.236-5.979-6.132h11.833c0,0,0.063-0.673,0.063-1.041c0-3.834-2.208-7.115-6.472-7.115
		c-4.138,0-7.604,3.035-7.604,8.094C240.64,38.481,244.136,41.793,248.705,41.793z M248.213,27.382c2.27,0,4.232,1.563,4.355,4.753
		h-9.659C243.43,29.038,245.668,27.382,248.213,27.382z"/>
	<path style="fill:#FFFFFF;" d="M273.179,57.107h-1.628c-2.087,0-4.477,1.565-5.307,3.481l-2.095,4.82l-6.48-12.522
		c-0.864-1.67-2.797-3.056-4.504-3.316c-0.17-0.034-0.354-0.055-0.556-0.055c-0.001,0-0.001,0-0.002,0c0,0,0,0-0.001,0
		c-1.826,0-4.231,1.442-5.347,3.207l-5.542,8.762l-8.102-12.575c-1.131-1.755-3.549-3.189-5.373-3.189
		c-0.223,0-0.428,0.021-0.612,0.062c-1.669,0.296-3.44,1.73-4.145,3.449l-7.66,18.707l-8.974-8.262
		c-1.418-1.306-3.862-2.379-5.666-2.537c-0.138-0.021-0.284-0.032-0.444-0.032c-0.202,0-0.38,0.016-0.542,0.043
		c-1.775,0.207-4.06,1.363-5.334,2.762l-8.915,9.782l-9.043-16.836c-0.988-1.839-3.29-3.343-5.115-3.343s-3.941,1.59-4.702,3.533
		l-5.934,15.112l-8.264-18.963c-0.835-1.913-3.012-3.479-4.837-3.479c-1.824,0-3.878,1.613-4.563,3.584l-7.108,20.457l-7.854-11.424
		c-1.075-1.563-3.199-2.856-4.949-3.082c-0.16-0.028-0.332-0.048-0.521-0.048c-0.181,0-0.344,0.019-0.499,0.044
		c-1.758,0.214-3.926,1.49-5.042,3.034l-5.207,7.203l-7.727-12.728c-1.083-1.785-3.462-3.245-5.288-3.245
		c-0.229,0-0.438,0.023-0.627,0.065c-1.646,0.311-3.327,1.772-3.933,3.52l-8.2,22.645l-9.305-25.328
		c-0.793-1.933-2.934-3.512-4.759-3.512h-2.347c-0.822,0-1.292-0.47-1.292-1.29V16.43c0-2.757-1.174-3.989-3.932-3.989h-7.101v6.337
		h2.348c0.821,0,1.291,0.411,1.291,1.291v29.125c0,2.816,1.173,3.989,3.932,3.989h6.242l10.291,28.019
		c0.792,1.929,2.935,3.512,4.76,3.512s3.877-1.616,4.561-3.588l8.945-24.706l6.563,10.812c0.977,1.611,3.006,2.947,4.735,3.194
		c0.168,0.032,0.35,0.052,0.551,0.052c0.174,0,0.333-0.019,0.484-0.043c1.762-0.209,3.939-1.486,5.059-3.034l5.413-7.488
		l9.028,13.131c1.183,1.719,3.644,3.127,5.469,3.127c0.233,0,0.444-0.024,0.634-0.067c1.644-0.312,3.324-1.772,3.929-3.518
		l6.394-18.396l8.064,18.501c0.835,1.913,3.01,3.479,4.835,3.479c1.824,0,3.942-1.592,4.705-3.532l6.273-15.987l7.671,14.28
		c0.877,1.634,2.791,2.997,4.486,3.281c0.186,0.039,0.394,0.061,0.625,0.062c0,0,0,0,0.001,0h0.001h0.001
		c0,0,0.002-0.001,0.003-0.001c0.149,0,0.289-0.014,0.423-0.034c1.791-0.169,4.146-1.343,5.448-2.771l10.063-11.04l10.186,9.377
		c1.535,1.416,4.284,2.569,6.11,2.569c0.26,0,0.482-0.025,0.677-0.07c0.033-0.005,0.065-0.017,0.098-0.025
		c0.035-0.009,0.073-0.019,0.107-0.03c1.584-0.394,3.207-1.759,3.873-3.387l6.898-16.847l7.394,11.477
		c1.028,1.597,3.118,2.915,4.862,3.143c0.159,0.029,0.328,0.049,0.513,0.049c0.189,0,0.36-0.02,0.522-0.049
		c1.739-0.233,3.81-1.559,4.823-3.162l5.18-8.188l7.102,13.721c0.961,1.854,3.238,3.37,5.062,3.37c0.053,0,0.095-0.013,0.146-0.016
		c0.108,0.01,0.219,0.016,0.333,0.016h1.627c2.087,0,4.476-1.565,5.307-3.481l3.61-8.305
		C276.294,58.672,275.266,57.107,273.179,57.107z"/>
</g>
</svg>
